<svg xmlns="http://www.w3.org/2000/svg" xmlns:xlink="http://www.w3.org/1999/xlink" width="40" height="40" viewBox="0 0 40 40">
  <defs>
    <clipPath id="clip-icon-line">
      <rect width="40" height="40"/>
    </clipPath>
  </defs>
  <g id="icon-line" clip-path="url(#clip-icon-line)">
    <g id="Group_3113" data-name="Group 3113" transform="translate(-1216 -634.999)">
      <rect id="Rectangle_4380" data-name="Rectangle 4380" width="40" height="40" rx="3.5" transform="translate(1216 635)" fill="#29be5d"/>
      <path id="Exclusion_1" data-name="Exclusion 1" d="M10.324,20.569h0a.6.6,0,0,1-.444-.2.582.582,0,0,1-.145-.458l.227-2.041a.591.591,0,0,0-.524-.653A13.251,13.251,0,0,1,7.5,16.868a12.468,12.468,0,0,1-1.787-.609,11.488,11.488,0,0,1-1.605-.843,10.342,10.342,0,0,1-1.389-1.049,9.148,9.148,0,0,1-1.14-1.229,8.074,8.074,0,0,1-.856-1.381,7.3,7.3,0,0,1-.539-1.507A6.984,6.984,0,0,1,.221,6.9,7.38,7.38,0,0,1,.854,5.28a8.288,8.288,0,0,1,1-1.469,9.507,9.507,0,0,1,1.327-1.28A10.805,10.805,0,0,1,4.792,1.477a11.981,11.981,0,0,1,1.846-.8,12.933,12.933,0,0,1,2.04-.5A13.751,13.751,0,0,1,13,.166a12.97,12.97,0,0,1,1.99.477A12.058,12.058,0,0,1,16.8,1.4a10.931,10.931,0,0,1,1.588,1,9.674,9.674,0,0,1,1.327,1.218,8.463,8.463,0,0,1,1.026,1.4,7.513,7.513,0,0,1,.684,1.552,7.025,7.025,0,0,1,.3,1.672,8.318,8.318,0,0,1,.01.845,5.457,5.457,0,0,1-.086.658,7.279,7.279,0,0,1-.831,2.382c-.088.159-.343.54-.683,1.019-.315.445-.62.855-.757,1.02a16.832,16.832,0,0,1-1.42,1.5,21.923,21.923,0,0,1-1.894,1.58,28.994,28.994,0,0,1-2.437,1.624c-.938.562-1.963,1.112-3.047,1.635A.591.591,0,0,1,10.324,20.569ZM15.317,6.2a.557.557,0,0,0-.556.556v4.2a.557.557,0,0,0,.556.556h2.224a.556.556,0,0,0,0-1.112H15.873V9.41h1.668a.556.556,0,1,0,0-1.112H15.873V7.311h1.668a.556.556,0,1,0,0-1.112Zm-7.238,0a.435.435,0,0,0-.434.434v4.441a.435.435,0,0,0,.434.434h.243a.435.435,0,0,0,.434-.434V6.634A.435.435,0,0,0,8.322,6.2Zm-3.743,0a.557.557,0,0,0-.556.556v4.2a.557.557,0,0,0,.556.556H6.561a.556.556,0,0,0,0-1.112H4.893V6.755A.557.557,0,0,0,4.337,6.2ZM10.7,8.4h0c.023.029,2.255,2.922,2.287,2.953a.553.553,0,0,0,.376.152h0a.539.539,0,0,0,.393-.174.6.6,0,0,0,.163-.4V6.755a.556.556,0,0,0-1.112,0V9.32c-.021-.028-2.221-2.9-2.254-2.934a.556.556,0,0,0-.414-.186h-.022a.54.54,0,0,0-.381.18.591.591,0,0,0-.154.4v4.175a.556.556,0,1,0,1.112,0V8.4Z" transform="translate(1224.999 646.342)" fill="#fff"/>
    </g>
  </g>
</svg>
