<svg xmlns="http://www.w3.org/2000/svg" xmlns:xlink="http://www.w3.org/1999/xlink" width="100" height="220" viewBox="0 0 100 220">
  <defs>
    <clipPath id="clip-logo-white">
      <rect width="100" height="220"/>
    </clipPath>
  </defs>
  <g id="logo-white" clip-path="url(#clip-logo-white)">
    <path id="Path_4839" data-name="Path 4839" d="M272.042,719.754c-.22-1.35,2.12-.159,1.7-1.705-1.589-1.07-4.145-.061-5.984,0-7.889,10.17,23.443,16.257,17.11.425C281.842,720.625,275.451,721.813,272.042,719.754Zm56.04-11.118c-.507,8.058,7.932,7.181,8.549,14.12,4.519,1.146,6.277,7.017,11.555,5.125,1.868-.67,3.761-3.979,3.847-5.987C352.4,713.82,336.962,701.614,328.082,708.636ZM349.9,694.511c-11.742.638-15.168.669-26.528,2.143-.737-13.507-1.709-30.547-1.281-45.777-7.116-7.536-16.986,5.809-22.664,8.981,1.521-14.159,15.879-18.8,27.8-23.961,4.343-10.353-5.789-14.806-12.409-8.985-1.886-4.532-2.559-10.275-6.423-12.834h-3.417c-5.027,2-1.615,7.538-2.137,11.544-.471,3.567-4.1,7.916-6.416,9.419-4.56,2.949-11.354-1-15.407,4.277,1.712,4.428,9.683,2.584,12.409,6,.458,6.961-2.653,13.447-3.423,20.535-.215,1.982.992,4.036.853,5.983-.106,1.585-1.144,3.211-1.284,4.71-.644,7.2,1.142,15.735-.85,20.969-1.822.893-4.247,1.169-5.564,2.565,1.1.331,1.967-1.672,2.567-.427-3,3.56-9.53,3.584-14.543,5.132,14.487-1.116,23.247-7.53,35.511-9.842.524,1.623,2.447,4.093,2.132,5.137-3.4,2.909-8.6,2.259-13.687,3.419-9.262,2.115-18.1,6.811-26.952,3.859-1.3-.7-1.436-2.564-3.417-2.573-2.014-.089-3.934,2.79-4.718,1.287-1.389.672-.128,2.383-.854,3a1.868,1.868,0,0,0-.851-1.713c-.44,6.191,14.962,9.466,20.962,7.7,10-2.957,22.762-7.485,31.669-10.273,1.948,1.928,2.821,5.159,6.835,5.566,4.374.435,8.871-1.781,7.7-8.135,8.43-1.856,16.613-4.144,24.383-.427C352.936,700.6,353.238,695.6,349.9,694.511Zm-51.761-5.13c-1.208-3.3.55-11.344,2.564-16.26C305.9,677.577,303.8,686.92,298.137,689.381Zm8.123-29.522c1.368-3.2,4.7-4.434,6.847-6.85,1.93,5.345.18,14.369,1.71,20.113C310.294,670.376,311.466,661.926,306.26,659.859Zm6,32.521c1.356-2.361,1.174-6.247,2.561-8.56.809,4.085.44,8.433.864,11.977C313.667,695.518,313.383,693.524,312.256,692.38Zm3.425-7.709v-2.134C316.987,681.881,316.987,685.327,315.681,684.672Zm7.692-88.058c-2.511-.059-4.012.883-6.535.82,2.486,2.037,7.675,6.889,11.032,9.391.51.377,1.419,0,2.041.412,1.459.946,2.6,2.643,3.267,2.857,3.922,1.253,7.677.1,8.171-3.269,1.038-7.128-7.139-14.148-16.337-10.609-.775,1.483.558,2.54-.41,3.665C323.139,599.849,324.28,597.216,323.373,596.613ZM275.6,590.891c3.088-2.221,3.923-7.273,8.169-8.16a81.981,81.981,0,0,0,10.205-15.113c.2-1.281-1.256-.922-.815-2.439,1.15-.344,1.057.561,2.042.4-.24-1.231.357-1.29.815-1.644,4.38-3.214,16.08-6,17.966-8.16,4.14,10.122-13.566,7.3-9.8,18.38,3.123.257,5.97-1.922,8.577-.817-1.111,2.561-4.37,2.984-5.717,5.309.19,1.959.254,3.421.4,4.5.871,1.082,3.395-1.005,4.087,0-2.709,6.411-11.5,6.731-13.876,13.469a19.092,19.092,0,0,1,1.628,2.043c4.522-.564,5.959-3.3,9.4-4.088a166.084,166.084,0,0,1-10.217,15.526c-.605-.881-1,.291-2.039-.407.443,1.909-1.629,2.662-.407,4.08a3.288,3.288,0,0,0,2.446-1.225c-.306,1.537,1.074,1.381,1.646,2.048.029-.645-.064-1.415.807-1.227-.1.45-.628.915.412.817,4.224-.427,5.262-7.781,9.8-13.073,1.06-1.227,2.957-1.886,3.677-2.854,1.747-2.375,1.03-6.863,2.033-8.987,7.184-5.18,16.341-6.168,20.011-15.107-.878-1.436-3.252-1.378-4.491-2.453-.106-1.6,1.483-1.517,1.233-3.263-3.742-3.189-7.245,3.736-10.624.811,1.322-4.957,9.2-5.471,9.8-9.793-3.177-2.733-7.022,1.468-9.393,1.624-.352-4.927,5.276-5.747,6.952-8.573a1.9,1.9,0,0,1,1.222.418c1.632-3.136,7.925-2.859,8.573-5.73.983,1.484,3.011-.852,5.31-1.219,3.037-.5,5.872.176,6.536-2.857a14.325,14.325,0,0,0-10.217-3.68c-1.372.117-2.558,1.412-4.076,2.045a41.5,41.5,0,0,1-12.659,2.859c.622-1.521,2.519-3.149,4.494-4.494,1.59-1.075,3.66-3.134,4.893-3.672.394-.176.74.765,1.228.4,1.8-1.308,1.989-2.9,4.087-3.679,2.7-1.005,3.685-2.282,5.713-3.674,1.18-.807,2.926-1.175,4.081-2.04,10.353-7.747-5.7-13.138-14.289-9.8-.506-4.941-3.552-7.341-8.163-8.169-.945,6.931-2.126,16.854-10.22,17.967-.137,1.147.785,2.463-2.033,2.45-.117-.719,1.917-1.269.82-1.629-.742.619-1.256,1.47-2.862,1.219-.686-6.122-.009-13.6-4.082-16.333-.377,6.384-.327,13.634-2.048,20.826-5.418,1.97-11.386,7.916-17.969,4.9-.334,2.34-1.026,3.976,0,5.716,5.083,4.071,8.768-1.369,12.665-2.457-1-1.417,3.237-4.78,4.079-4.486,3.208,1.129-1.529,10.839-.411,15.526-1.786.259-3.484,2.756-5.713,1.216.36-4.174,1.194-5.856,1.632-9.388-2.265,3.167-3.153,7.73-4.9,11.43a10.973,10.973,0,0,0-4.495,2.447c-.987,7.6-5.328,14.976-11.432,18.789.525-5.195,2.541-8.9,2.449-14.7,2.948-1.723,5.292-8.807,0-9.792.136-8.981.373-18.885,3.266-26.144-3.323-2.4-7.2-4.277-11.845-3.27-1.8,3.27-8.676,8.5-11.84,4.087-2.028.9.215,2.944,0,4.9-.175,1.643-1.4,2.407-1.23,3.68.971,6.964,8.556,1.767,12.258,0,1.238,3.6.078,11,0,15.919a29.284,29.284,0,0,0-9.794,9.8,23.631,23.631,0,0,0,2.859,17.153c-.625,1.283-1.827,2-2.047,3.675,1.009.527,1.978-.91,2.047,0v1.637a5.841,5.841,0,0,1-2.859-1.224c-3.086,7.535-12.141,9.086-10.217,21.641,1.546-.595.79,1.121,2.045.812,5.674-3.047,9.572-8.063,14.694-11.837C271.581,592.51,273.846,592.161,275.6,590.891Zm55.536-13.059a10.789,10.789,0,0,1-7.766,4.491C324.963,579.787,328.624,573.262,331.14,577.832Zm4.082-57.587a10.033,10.033,0,0,1,8.575,0c-.51,4.718-4.647,7.923-7.755,10.627-3.069,2.656-6.316,6.42-10.217,6.935C328.983,531.982,332.518,526.534,335.221,520.245Zm-6.941,29.816c-.692,2.834-2.137,4.945-4.907,5.716C321.052,552.349,324.776,550.117,328.28,550.062ZM313.168,532.5c2.757-1.362,4.8-2.3,6.943-4.9,1.774,5.516-4.619,9.765-6.534,14.288.374,2.223,1.757,3.422,2.453,5.309-.291,2.3-2.82,2.352-4.9,2.863C312.6,543.39,311.466,538.935,313.168,532.5ZM268.25,570.486c.536.145.639.706,1.224.812.522,2.558-1.423,2.656-2.036,4.085C265.023,574.515,266.674,570.979,268.25,570.486Zm10.621,8.571a24.251,24.251,0,0,1-11.025,8.576C267.548,580.315,274.374,579.515,278.871,579.057Z" transform="translate(-252.875 -509.225)" fill="#fff" fill-rule="evenodd"/>
  </g>
</svg>
