<svg xmlns="http://www.w3.org/2000/svg" xmlns:xlink="http://www.w3.org/1999/xlink" width="147" height="64" viewBox="0 0 147 64">
  <defs>
    <clipPath id="clip-logo-4">
      <rect width="147" height="64"/>
    </clipPath>
  </defs>
  <g id="logo-4" clip-path="url(#clip-logo-4)">
    <g id="logo" transform="translate(-7.351 -6.591)">
      <path id="Path_4867" data-name="Path 4867" d="M137.035,6.642H103.3l-17.64,22.15L68.1,6.642H57.956V41.227H33.68c-5.207,0-9.367-1.227-12.361-3.646a11.264,11.264,0,0,1-4.368-9.293,11.225,11.225,0,0,1,4.426-9.165c3.03-2.469,7.046-3.722,11.935-3.722H47.146V6.591H33.311c-6.945,0-12.872,1.823-17.614,5.418-5.538,4.183-8.345,9.659-8.345,16.28a19.688,19.688,0,0,0,8.24,16.385c4.708,3.561,10.67,5.366,17.72,5.366h33.98v-30.8L85.6,42.414l18.473-23.2V50.09h9.336V41.183h23.626a17.271,17.271,0,1,0,0-34.541Zm.45,24.745H113.409V16.324h24.076a7.531,7.531,0,0,1,0,15.062Z" transform="translate(0 0)" fill="#2a2b84"/>
      <g id="Group_3070" data-name="Group 3070" transform="translate(17.72 61.192)">
        <path id="Path_4868" data-name="Path 4868" d="M27.753,65.654a4.532,4.532,0,0,1-1.37,3.434A5.044,5.044,0,0,1,22.748,70.4a5.186,5.186,0,0,1-3.457-1.167,4.553,4.553,0,0,1,.021-6.9,5.3,5.3,0,0,1,3.543-1.18A5.172,5.172,0,0,1,27.1,63.257l-1.214.674a3.919,3.919,0,0,0-3.142-1.457,3.84,3.84,0,0,0-2.5.819,3.265,3.265,0,0,0-.163,4.863,3.81,3.81,0,0,0,2.666.915,3.219,3.219,0,0,0,3.38-2.251H22.476v-1.3h5.276v.134Z" transform="translate(-17.72 -61.15)" fill="#2a2b84"/>
        <path id="Path_4869" data-name="Path 4869" d="M57.278,70.144H55.766l-2.123-3.323h-3.96v3.323h-1.3V61.428H54.57a2.551,2.551,0,0,1,1.939.74,2.793,2.793,0,0,1,.705,2,2.654,2.654,0,0,1-.575,1.782,2.4,2.4,0,0,1-1.462.794Zm-2.9-4.623q1.5,0,1.505-1.348,0-1.445-1.625-1.445H49.683v2.793Z" transform="translate(-17.695 -61.15)" fill="#2a2b84"/>
        <path id="Path_4870" data-name="Path 4870" d="M87.388,65.774a4.3,4.3,0,0,1-1.582,3.467,5.724,5.724,0,0,1-6.912-.012,4.531,4.531,0,0,1,.022-6.9,5.182,5.182,0,0,1,3.445-1.18A5.117,5.117,0,0,1,85.8,62.33,4.311,4.311,0,0,1,87.388,65.774Zm-1.354,0a3.044,3.044,0,0,0-1.17-2.48,4.252,4.252,0,0,0-5.168.115,3.285,3.285,0,0,0-.022,4.755,3.863,3.863,0,0,0,2.687.908,3.8,3.8,0,0,0,2.671-.915A3.073,3.073,0,0,0,86.034,65.774Z" transform="translate(-17.672 -61.15)" fill="#2a2b84"/>
        <path id="Path_4871" data-name="Path 4871" d="M116.848,67.327a2.584,2.584,0,0,1-1.192,2.2,5.408,5.408,0,0,1-3.24.879,5.506,5.506,0,0,1-3.261-.879,2.6,2.6,0,0,1-1.192-2.2v-5.9h1.3v5.55a1.768,1.768,0,0,0,.808,1.565,4.212,4.212,0,0,0,2.345.541,4.157,4.157,0,0,0,2.335-.541,1.777,1.777,0,0,0,.795-1.565v-5.55h1.3v5.9Z" transform="translate(-17.648 -61.15)" fill="#2a2b84"/>
        <path id="Path_4872" data-name="Path 4872" d="M144.054,61.428a2.511,2.511,0,0,1,1.907.74,2.759,2.759,0,0,1,.705,1.981,2.59,2.59,0,0,1-.731,1.985,3,3,0,0,1-2.129.687h-4.669v3.323h-1.3V61.428h6.217Zm-.227,4.093q1.5,0,1.505-1.348,0-1.445-1.592-1.445h-4.6v2.793Z" transform="translate(-17.624 -61.15)" fill="#2a2b84"/>
      </g>
    </g>
  </g>
</svg>
